<mxfile host="app.diagrams.net" modified="2022-11-03T00:04:40.122Z" agent="5.0 (Windows NT 10.0; Win64; x64) AppleWebKit/537.36 (KHTML, like Gecko) Chrome/106.0.0.0 Safari/537.36" etag="lYYf-cXOiJCyMgcOGWt3" version="20.5.1" type="github">
  <diagram id="r4BeLTsIpzYm35LZDZS5" name="Page-1">
    <mxGraphModel dx="2062" dy="1154" grid="1" gridSize="10" guides="1" tooltips="1" connect="1" arrows="1" fold="1" page="1" pageScale="1" pageWidth="850" pageHeight="1100" math="0" shadow="0">
      <root>
        <mxCell id="0" />
        <mxCell id="1" parent="0" />
        <mxCell id="L6tZ5j_gEHSIY5rf-0Vz-1" value="Random Movie Generator&amp;nbsp; -&amp;nbsp;" style="rounded=0;whiteSpace=wrap;html=1;" vertex="1" parent="1">
          <mxGeometry x="40" y="40" width="760" height="90" as="geometry" />
        </mxCell>
        <mxCell id="L6tZ5j_gEHSIY5rf-0Vz-2" value="" style="rounded=0;whiteSpace=wrap;html=1;shadow=1;" vertex="1" parent="1">
          <mxGeometry x="40" y="140" width="760" height="180" as="geometry" />
        </mxCell>
        <mxCell id="L6tZ5j_gEHSIY5rf-0Vz-3" value="Actors" style="rounded=1;html=1;shadow=1;flipH=1;whiteSpace=wrap;" vertex="1" parent="1">
          <mxGeometry x="260" y="150" width="120" height="50" as="geometry" />
        </mxCell>
        <mxCell id="L6tZ5j_gEHSIY5rf-0Vz-4" value="Genre" style="rounded=1;html=1;shadow=1;flipH=1;whiteSpace=wrap;" vertex="1" parent="1">
          <mxGeometry x="440" y="150" width="120" height="50" as="geometry" />
        </mxCell>
        <mxCell id="L6tZ5j_gEHSIY5rf-0Vz-5" value="Run-Time ( &amp;gt;1, &amp;gt;2, &amp;gt;3)" style="rounded=1;html=1;shadow=1;flipH=1;whiteSpace=wrap;" vertex="1" parent="1">
          <mxGeometry x="620" y="150" width="120" height="50" as="geometry" />
        </mxCell>
        <mxCell id="L6tZ5j_gEHSIY5rf-0Vz-7" value="Director" style="rounded=1;html=1;flipH=1;whiteSpace=wrap;" vertex="1" parent="1">
          <mxGeometry x="80" y="150" width="120" height="50" as="geometry" />
        </mxCell>
        <mxCell id="L6tZ5j_gEHSIY5rf-0Vz-8" value="Run / Generate" style="rounded=1;whiteSpace=wrap;html=1;shadow=1;" vertex="1" parent="1">
          <mxGeometry x="295" y="330" width="260" height="60" as="geometry" />
        </mxCell>
        <mxCell id="L6tZ5j_gEHSIY5rf-0Vz-11" value="" style="rounded=0;whiteSpace=wrap;html=1;shadow=1;" vertex="1" parent="1">
          <mxGeometry x="40" y="400" width="760" height="680" as="geometry" />
        </mxCell>
        <mxCell id="L6tZ5j_gEHSIY5rf-0Vz-13" value="Movie Title&amp;nbsp;" style="rounded=0;whiteSpace=wrap;html=1;shadow=1;" vertex="1" parent="1">
          <mxGeometry x="95" y="420" width="660" height="30" as="geometry" />
        </mxCell>
        <mxCell id="L6tZ5j_gEHSIY5rf-0Vz-15" value="Movie Image&amp;nbsp;" style="rounded=0;whiteSpace=wrap;html=1;shadow=1;" vertex="1" parent="1">
          <mxGeometry x="95" y="460" width="665" height="140" as="geometry" />
        </mxCell>
        <mxCell id="L6tZ5j_gEHSIY5rf-0Vz-17" value="Cast / Crew" style="rounded=0;whiteSpace=wrap;html=1;shadow=1;" vertex="1" parent="1">
          <mxGeometry x="93" y="830" width="665" height="70" as="geometry" />
        </mxCell>
        <mxCell id="L6tZ5j_gEHSIY5rf-0Vz-21" value="Synopsis&amp;nbsp;" style="rounded=0;whiteSpace=wrap;html=1;shadow=1;" vertex="1" parent="1">
          <mxGeometry x="95" y="610" width="335" height="200" as="geometry" />
        </mxCell>
        <mxCell id="L6tZ5j_gEHSIY5rf-0Vz-23" value="Rating / Runtime / Etc.&amp;nbsp;" style="rounded=0;whiteSpace=wrap;html=1;shadow=1;" vertex="1" parent="1">
          <mxGeometry x="94" y="920" width="665" height="130" as="geometry" />
        </mxCell>
        <mxCell id="L6tZ5j_gEHSIY5rf-0Vz-24" value="User Comments / Etc.&amp;nbsp;" style="rounded=0;whiteSpace=wrap;html=1;shadow=1;" vertex="1" parent="1">
          <mxGeometry x="440" y="610" width="320" height="200" as="geometry" />
        </mxCell>
      </root>
    </mxGraphModel>
  </diagram>
</mxfile>
